<mxfile host="app.diagrams.net" modified="2024-04-02T00:29:04.448Z" agent="Mozilla/5.0 (Windows NT 10.0; Win64; x64) AppleWebKit/537.36 (KHTML, like Gecko) Chrome/123.0.0.0 Safari/537.36" etag="TqGZLhpe7yXZ0V0_FIRR" version="24.2.1" type="device">
  <diagram name="페이지-1" id="w8w89XettnfoNuSukhd3">
    <mxGraphModel dx="1969" dy="878" grid="1" gridSize="10" guides="1" tooltips="1" connect="1" arrows="1" fold="1" page="1" pageScale="1" pageWidth="827" pageHeight="1169" math="0" shadow="0">
      <root>
        <mxCell id="0" />
        <mxCell id="1" parent="0" />
        <mxCell id="DZGPDvpxpe8UDhPTBdSN-1" value="&lt;font style=&quot;font-size: 19px;&quot;&gt;traffic&lt;/font&gt;&lt;div style=&quot;font-size: 19px;&quot;&gt;&lt;font style=&quot;font-size: 19px;&quot;&gt;(교통)&lt;/font&gt;&lt;/div&gt;" style="rounded=0;whiteSpace=wrap;html=1;" parent="1" vertex="1">
          <mxGeometry x="333" y="58" width="120" height="60" as="geometry" />
        </mxCell>
        <mxCell id="DZGPDvpxpe8UDhPTBdSN-2" value="&lt;font style=&quot;font-size: 16px;&quot;&gt;ttype&lt;/font&gt;&lt;div style=&quot;font-size: 16px;&quot;&gt;&lt;font style=&quot;font-size: 16px;&quot;&gt;(종류)&lt;/font&gt;&lt;/div&gt;" style="ellipse;whiteSpace=wrap;html=1;" parent="1" vertex="1">
          <mxGeometry x="193" y="160" width="120" height="80" as="geometry" />
        </mxCell>
        <mxCell id="DZGPDvpxpe8UDhPTBdSN-3" value="&lt;span style=&quot;font-size: 16px;&quot;&gt;no&lt;/span&gt;&lt;br&gt;&lt;div style=&quot;font-size: 16px;&quot;&gt;&lt;font style=&quot;font-size: 16px;&quot;&gt;(번호)&lt;/font&gt;&lt;/div&gt;" style="ellipse;whiteSpace=wrap;html=1;" parent="1" vertex="1">
          <mxGeometry x="333" y="160" width="120" height="80" as="geometry" />
        </mxCell>
        <mxCell id="DZGPDvpxpe8UDhPTBdSN-4" value="&lt;span style=&quot;font-size: 16px;&quot;&gt;route&lt;/span&gt;&lt;div&gt;&lt;span style=&quot;font-size: 16px;&quot;&gt;(노선도)&lt;/span&gt;&lt;/div&gt;" style="ellipse;whiteSpace=wrap;html=1;" parent="1" vertex="1">
          <mxGeometry x="473" y="160" width="120" height="80" as="geometry" />
        </mxCell>
        <mxCell id="DZGPDvpxpe8UDhPTBdSN-5" value="&lt;span style=&quot;font-size: 16px;&quot;&gt;coment&lt;/span&gt;&lt;br&gt;&lt;div style=&quot;font-size: 16px;&quot;&gt;&lt;font style=&quot;font-size: 16px;&quot;&gt;(설명)&lt;/font&gt;&lt;/div&gt;" style="ellipse;whiteSpace=wrap;html=1;" parent="1" vertex="1">
          <mxGeometry x="613" y="160" width="120" height="80" as="geometry" />
        </mxCell>
        <mxCell id="DZGPDvpxpe8UDhPTBdSN-6" value="" style="endArrow=classic;html=1;rounded=0;exitX=0.5;exitY=1;exitDx=0;exitDy=0;entryX=0.5;entryY=0;entryDx=0;entryDy=0;" parent="1" source="DZGPDvpxpe8UDhPTBdSN-1" target="DZGPDvpxpe8UDhPTBdSN-2" edge="1">
          <mxGeometry width="50" height="50" relative="1" as="geometry">
            <mxPoint x="533" y="390" as="sourcePoint" />
            <mxPoint x="583" y="340" as="targetPoint" />
          </mxGeometry>
        </mxCell>
        <mxCell id="DZGPDvpxpe8UDhPTBdSN-7" value="" style="endArrow=classic;html=1;rounded=0;exitX=0.5;exitY=1;exitDx=0;exitDy=0;entryX=0.5;entryY=0;entryDx=0;entryDy=0;" parent="1" source="DZGPDvpxpe8UDhPTBdSN-1" target="DZGPDvpxpe8UDhPTBdSN-3" edge="1">
          <mxGeometry width="50" height="50" relative="1" as="geometry">
            <mxPoint x="533" y="390" as="sourcePoint" />
            <mxPoint x="583" y="340" as="targetPoint" />
          </mxGeometry>
        </mxCell>
        <mxCell id="DZGPDvpxpe8UDhPTBdSN-8" value="" style="endArrow=classic;html=1;rounded=0;exitX=0.5;exitY=1;exitDx=0;exitDy=0;entryX=0.5;entryY=0;entryDx=0;entryDy=0;" parent="1" source="DZGPDvpxpe8UDhPTBdSN-1" target="DZGPDvpxpe8UDhPTBdSN-4" edge="1">
          <mxGeometry width="50" height="50" relative="1" as="geometry">
            <mxPoint x="533" y="390" as="sourcePoint" />
            <mxPoint x="583" y="340" as="targetPoint" />
          </mxGeometry>
        </mxCell>
        <mxCell id="DZGPDvpxpe8UDhPTBdSN-9" value="" style="endArrow=classic;html=1;rounded=0;exitX=0.5;exitY=1;exitDx=0;exitDy=0;entryX=0.5;entryY=0;entryDx=0;entryDy=0;" parent="1" source="DZGPDvpxpe8UDhPTBdSN-1" target="DZGPDvpxpe8UDhPTBdSN-5" edge="1">
          <mxGeometry width="50" height="50" relative="1" as="geometry">
            <mxPoint x="533" y="390" as="sourcePoint" />
            <mxPoint x="583" y="340" as="targetPoint" />
          </mxGeometry>
        </mxCell>
        <mxCell id="DZGPDvpxpe8UDhPTBdSN-10" value="&lt;font style=&quot;font-size: 19px;&quot;&gt;guide&lt;/font&gt;&lt;div style=&quot;font-size: 19px;&quot;&gt;&lt;font style=&quot;font-size: 19px;&quot;&gt;(안내사항)&lt;/font&gt;&lt;/div&gt;" style="rounded=0;whiteSpace=wrap;html=1;" parent="1" vertex="1">
          <mxGeometry x="540" y="277" width="120" height="60" as="geometry" />
        </mxCell>
        <mxCell id="DZGPDvpxpe8UDhPTBdSN-11" value="&lt;b style=&quot;&quot;&gt;&lt;font style=&quot;&quot; color=&quot;#cc0000&quot;&gt;&lt;u&gt;&lt;span style=&quot;font-size: 16px;&quot;&gt;pcode&lt;/span&gt;&lt;br&gt;&lt;/u&gt;&lt;/font&gt;&lt;/b&gt;&lt;div style=&quot;font-size: 16px;&quot;&gt;&lt;font color=&quot;#cc0000&quot; style=&quot;font-size: 16px;&quot;&gt;&lt;b style=&quot;&quot;&gt;&lt;u&gt;(장소코드)&lt;/u&gt;&lt;/b&gt;&lt;/font&gt;&lt;/div&gt;" style="ellipse;whiteSpace=wrap;html=1;" parent="1" vertex="1">
          <mxGeometry x="50" y="405" width="120" height="80" as="geometry" />
        </mxCell>
        <mxCell id="DZGPDvpxpe8UDhPTBdSN-12" value="&lt;span style=&quot;font-size: 16px;&quot;&gt;pname&lt;/span&gt;&lt;br&gt;&lt;div style=&quot;font-size: 16px;&quot;&gt;&lt;font style=&quot;font-size: 16px;&quot;&gt;(장소이름)&lt;/font&gt;&lt;/div&gt;" style="ellipse;whiteSpace=wrap;html=1;" parent="1" vertex="1">
          <mxGeometry x="190" y="405" width="120" height="80" as="geometry" />
        </mxCell>
        <mxCell id="DZGPDvpxpe8UDhPTBdSN-13" value="&lt;span style=&quot;font-size: 16px;&quot;&gt;ptype&lt;/span&gt;&lt;br&gt;&lt;div style=&quot;font-size: 16px;&quot;&gt;&lt;font style=&quot;font-size: 16px;&quot;&gt;(장소종류)&lt;/font&gt;&lt;/div&gt;" style="ellipse;whiteSpace=wrap;html=1;" parent="1" vertex="1">
          <mxGeometry x="330" y="405" width="120" height="80" as="geometry" />
        </mxCell>
        <mxCell id="DZGPDvpxpe8UDhPTBdSN-14" value="&lt;span style=&quot;font-size: 16px;&quot;&gt;paddr&lt;/span&gt;&lt;br&gt;&lt;div style=&quot;font-size: 16px;&quot;&gt;&lt;font style=&quot;font-size: 16px;&quot;&gt;(장소주소)&lt;/font&gt;&lt;/div&gt;" style="ellipse;whiteSpace=wrap;html=1;" parent="1" vertex="1">
          <mxGeometry x="470" y="405" width="120" height="80" as="geometry" />
        </mxCell>
        <mxCell id="DZGPDvpxpe8UDhPTBdSN-15" value="&lt;span style=&quot;font-size: 16px;&quot;&gt;ptel&lt;/span&gt;&lt;br&gt;&lt;div style=&quot;font-size: 16px;&quot;&gt;&lt;font style=&quot;font-size: 16px;&quot;&gt;(장소연락처)&lt;/font&gt;&lt;/div&gt;" style="ellipse;whiteSpace=wrap;html=1;" parent="1" vertex="1">
          <mxGeometry x="610" y="405" width="120" height="80" as="geometry" />
        </mxCell>
        <mxCell id="DZGPDvpxpe8UDhPTBdSN-16" value="&lt;span style=&quot;font-size: 16px;&quot;&gt;pgps&lt;/span&gt;&lt;br&gt;&lt;div style=&quot;font-size: 16px;&quot;&gt;&lt;font style=&quot;font-size: 16px;&quot;&gt;(장소GPS값)&lt;/font&gt;&lt;/div&gt;" style="ellipse;whiteSpace=wrap;html=1;" parent="1" vertex="1">
          <mxGeometry x="750" y="405" width="120" height="80" as="geometry" />
        </mxCell>
        <mxCell id="DZGPDvpxpe8UDhPTBdSN-17" value="&lt;span style=&quot;font-size: 16px;&quot;&gt;pcoment&lt;/span&gt;&lt;br&gt;&lt;div style=&quot;font-size: 16px;&quot;&gt;&lt;font style=&quot;font-size: 16px;&quot;&gt;(장소설명)&lt;/font&gt;&lt;/div&gt;" style="ellipse;whiteSpace=wrap;html=1;" parent="1" vertex="1">
          <mxGeometry x="890" y="405" width="120" height="80" as="geometry" />
        </mxCell>
        <mxCell id="DZGPDvpxpe8UDhPTBdSN-18" value="&lt;span style=&quot;font-size: 16px;&quot;&gt;premark&lt;/span&gt;&lt;br&gt;&lt;div style=&quot;font-size: 16px;&quot;&gt;&lt;font style=&quot;font-size: 16px;&quot;&gt;(참고사항)&lt;/font&gt;&lt;/div&gt;" style="ellipse;whiteSpace=wrap;html=1;" parent="1" vertex="1">
          <mxGeometry x="1030" y="405" width="120" height="80" as="geometry" />
        </mxCell>
        <mxCell id="DZGPDvpxpe8UDhPTBdSN-19" value="" style="endArrow=classic;html=1;rounded=0;exitX=0.5;exitY=1;exitDx=0;exitDy=0;entryX=0.5;entryY=0;entryDx=0;entryDy=0;" parent="1" source="DZGPDvpxpe8UDhPTBdSN-10" target="DZGPDvpxpe8UDhPTBdSN-11" edge="1">
          <mxGeometry width="50" height="50" relative="1" as="geometry">
            <mxPoint x="540" y="505" as="sourcePoint" />
            <mxPoint x="590" y="455" as="targetPoint" />
          </mxGeometry>
        </mxCell>
        <mxCell id="DZGPDvpxpe8UDhPTBdSN-20" value="" style="endArrow=classic;html=1;rounded=0;exitX=0.5;exitY=1;exitDx=0;exitDy=0;entryX=0.5;entryY=0;entryDx=0;entryDy=0;" parent="1" source="DZGPDvpxpe8UDhPTBdSN-10" target="DZGPDvpxpe8UDhPTBdSN-12" edge="1">
          <mxGeometry width="50" height="50" relative="1" as="geometry">
            <mxPoint x="540" y="505" as="sourcePoint" />
            <mxPoint x="590" y="455" as="targetPoint" />
          </mxGeometry>
        </mxCell>
        <mxCell id="DZGPDvpxpe8UDhPTBdSN-21" value="" style="endArrow=classic;html=1;rounded=0;entryX=0.5;entryY=0;entryDx=0;entryDy=0;exitX=0.5;exitY=1;exitDx=0;exitDy=0;" parent="1" source="DZGPDvpxpe8UDhPTBdSN-10" target="DZGPDvpxpe8UDhPTBdSN-14" edge="1">
          <mxGeometry width="50" height="50" relative="1" as="geometry">
            <mxPoint x="540" y="505" as="sourcePoint" />
            <mxPoint x="590" y="455" as="targetPoint" />
          </mxGeometry>
        </mxCell>
        <mxCell id="DZGPDvpxpe8UDhPTBdSN-22" value="" style="endArrow=classic;html=1;rounded=0;entryX=0.5;entryY=0;entryDx=0;entryDy=0;exitX=0.5;exitY=1;exitDx=0;exitDy=0;" parent="1" source="DZGPDvpxpe8UDhPTBdSN-10" target="DZGPDvpxpe8UDhPTBdSN-13" edge="1">
          <mxGeometry width="50" height="50" relative="1" as="geometry">
            <mxPoint x="540" y="505" as="sourcePoint" />
            <mxPoint x="590" y="455" as="targetPoint" />
          </mxGeometry>
        </mxCell>
        <mxCell id="DZGPDvpxpe8UDhPTBdSN-23" value="" style="endArrow=classic;html=1;rounded=0;exitX=0.5;exitY=1;exitDx=0;exitDy=0;entryX=0.5;entryY=0;entryDx=0;entryDy=0;" parent="1" source="DZGPDvpxpe8UDhPTBdSN-10" target="DZGPDvpxpe8UDhPTBdSN-18" edge="1">
          <mxGeometry width="50" height="50" relative="1" as="geometry">
            <mxPoint x="540" y="505" as="sourcePoint" />
            <mxPoint x="590" y="455" as="targetPoint" />
          </mxGeometry>
        </mxCell>
        <mxCell id="DZGPDvpxpe8UDhPTBdSN-24" value="" style="endArrow=classic;html=1;rounded=0;entryX=0.5;entryY=0;entryDx=0;entryDy=0;exitX=0.5;exitY=1;exitDx=0;exitDy=0;" parent="1" source="DZGPDvpxpe8UDhPTBdSN-10" target="DZGPDvpxpe8UDhPTBdSN-17" edge="1">
          <mxGeometry width="50" height="50" relative="1" as="geometry">
            <mxPoint x="540" y="505" as="sourcePoint" />
            <mxPoint x="590" y="455" as="targetPoint" />
          </mxGeometry>
        </mxCell>
        <mxCell id="DZGPDvpxpe8UDhPTBdSN-25" value="" style="endArrow=classic;html=1;rounded=0;entryX=0.5;entryY=0;entryDx=0;entryDy=0;exitX=0.5;exitY=1;exitDx=0;exitDy=0;" parent="1" source="DZGPDvpxpe8UDhPTBdSN-10" target="DZGPDvpxpe8UDhPTBdSN-16" edge="1">
          <mxGeometry width="50" height="50" relative="1" as="geometry">
            <mxPoint x="540" y="505" as="sourcePoint" />
            <mxPoint x="590" y="455" as="targetPoint" />
          </mxGeometry>
        </mxCell>
        <mxCell id="DZGPDvpxpe8UDhPTBdSN-26" value="" style="endArrow=classic;html=1;rounded=0;exitX=0.5;exitY=1;exitDx=0;exitDy=0;entryX=0.5;entryY=0;entryDx=0;entryDy=0;" parent="1" source="DZGPDvpxpe8UDhPTBdSN-10" target="DZGPDvpxpe8UDhPTBdSN-15" edge="1">
          <mxGeometry width="50" height="50" relative="1" as="geometry">
            <mxPoint x="540" y="505" as="sourcePoint" />
            <mxPoint x="590" y="455" as="targetPoint" />
          </mxGeometry>
        </mxCell>
        <mxCell id="DZGPDvpxpe8UDhPTBdSN-27" value="&lt;font style=&quot;font-size: 19px;&quot;&gt;notice&lt;/font&gt;&lt;div style=&quot;font-size: 19px;&quot;&gt;&lt;font style=&quot;font-size: 19px;&quot;&gt;(공지사항)&lt;/font&gt;&lt;/div&gt;" style="rounded=0;whiteSpace=wrap;html=1;" parent="1" vertex="1">
          <mxGeometry x="330" y="533" width="120" height="60" as="geometry" />
        </mxCell>
        <mxCell id="DZGPDvpxpe8UDhPTBdSN-28" value="&lt;b&gt;&lt;font style=&quot;&quot; color=&quot;#cc0000&quot;&gt;&lt;u&gt;&lt;span style=&quot;font-size: 16px;&quot;&gt;no&lt;/span&gt;&lt;br&gt;&lt;/u&gt;&lt;/font&gt;&lt;/b&gt;&lt;div style=&quot;font-size: 16px;&quot;&gt;&lt;font color=&quot;#cc0000&quot; style=&quot;font-size: 16px;&quot;&gt;&lt;b&gt;&lt;u&gt;(글번호)&lt;/u&gt;&lt;/b&gt;&lt;/font&gt;&lt;/div&gt;" style="ellipse;whiteSpace=wrap;html=1;" parent="1" vertex="1">
          <mxGeometry x="50" y="648" width="120" height="80" as="geometry" />
        </mxCell>
        <mxCell id="DZGPDvpxpe8UDhPTBdSN-29" value="&lt;span style=&quot;font-size: 16px;&quot;&gt;title&lt;/span&gt;&lt;br&gt;&lt;div style=&quot;font-size: 16px;&quot;&gt;&lt;font style=&quot;font-size: 16px;&quot;&gt;(글제목)&lt;/font&gt;&lt;/div&gt;" style="ellipse;whiteSpace=wrap;html=1;" parent="1" vertex="1">
          <mxGeometry x="190" y="648" width="120" height="80" as="geometry" />
        </mxCell>
        <mxCell id="DZGPDvpxpe8UDhPTBdSN-30" value="&lt;span style=&quot;font-size: 16px;&quot;&gt;content&lt;/span&gt;&lt;br&gt;&lt;div style=&quot;font-size: 16px;&quot;&gt;&lt;font style=&quot;font-size: 16px;&quot;&gt;(글내용)&lt;/font&gt;&lt;/div&gt;" style="ellipse;whiteSpace=wrap;html=1;" parent="1" vertex="1">
          <mxGeometry x="330" y="648" width="120" height="80" as="geometry" />
        </mxCell>
        <mxCell id="DZGPDvpxpe8UDhPTBdSN-31" value="&lt;span style=&quot;font-size: 16px;&quot;&gt;resdate&lt;/span&gt;&lt;br&gt;&lt;div style=&quot;font-size: 16px;&quot;&gt;&lt;font style=&quot;font-size: 16px;&quot;&gt;(작성일시)&lt;/font&gt;&lt;/div&gt;" style="ellipse;whiteSpace=wrap;html=1;" parent="1" vertex="1">
          <mxGeometry x="470" y="648" width="120" height="80" as="geometry" />
        </mxCell>
        <mxCell id="DZGPDvpxpe8UDhPTBdSN-32" value="&lt;span style=&quot;font-size: 16px;&quot;&gt;visited&lt;/span&gt;&lt;br&gt;&lt;div style=&quot;font-size: 16px;&quot;&gt;&lt;font style=&quot;font-size: 16px;&quot;&gt;(읽은횟수)&lt;/font&gt;&lt;/div&gt;" style="ellipse;whiteSpace=wrap;html=1;" parent="1" vertex="1">
          <mxGeometry x="610" y="648" width="120" height="80" as="geometry" />
        </mxCell>
        <mxCell id="DZGPDvpxpe8UDhPTBdSN-33" value="" style="endArrow=classic;html=1;rounded=0;exitX=0.5;exitY=1;exitDx=0;exitDy=0;entryX=0.5;entryY=0;entryDx=0;entryDy=0;" parent="1" source="DZGPDvpxpe8UDhPTBdSN-27" target="DZGPDvpxpe8UDhPTBdSN-28" edge="1">
          <mxGeometry width="50" height="50" relative="1" as="geometry">
            <mxPoint x="590" y="478" as="sourcePoint" />
            <mxPoint x="640" y="428" as="targetPoint" />
          </mxGeometry>
        </mxCell>
        <mxCell id="DZGPDvpxpe8UDhPTBdSN-34" value="" style="endArrow=classic;html=1;rounded=0;exitX=0.5;exitY=1;exitDx=0;exitDy=0;entryX=0.5;entryY=0;entryDx=0;entryDy=0;" parent="1" source="DZGPDvpxpe8UDhPTBdSN-27" target="DZGPDvpxpe8UDhPTBdSN-29" edge="1">
          <mxGeometry width="50" height="50" relative="1" as="geometry">
            <mxPoint x="590" y="478" as="sourcePoint" />
            <mxPoint x="640" y="428" as="targetPoint" />
          </mxGeometry>
        </mxCell>
        <mxCell id="DZGPDvpxpe8UDhPTBdSN-35" value="" style="endArrow=classic;html=1;rounded=0;exitX=0.5;exitY=1;exitDx=0;exitDy=0;" parent="1" source="DZGPDvpxpe8UDhPTBdSN-27" target="DZGPDvpxpe8UDhPTBdSN-30" edge="1">
          <mxGeometry width="50" height="50" relative="1" as="geometry">
            <mxPoint x="590" y="478" as="sourcePoint" />
            <mxPoint x="640" y="428" as="targetPoint" />
          </mxGeometry>
        </mxCell>
        <mxCell id="DZGPDvpxpe8UDhPTBdSN-36" value="" style="endArrow=classic;html=1;rounded=0;exitX=0.5;exitY=1;exitDx=0;exitDy=0;entryX=0.5;entryY=0;entryDx=0;entryDy=0;" parent="1" source="DZGPDvpxpe8UDhPTBdSN-27" target="DZGPDvpxpe8UDhPTBdSN-32" edge="1">
          <mxGeometry width="50" height="50" relative="1" as="geometry">
            <mxPoint x="590" y="478" as="sourcePoint" />
            <mxPoint x="640" y="428" as="targetPoint" />
          </mxGeometry>
        </mxCell>
        <mxCell id="DZGPDvpxpe8UDhPTBdSN-37" value="" style="endArrow=classic;html=1;rounded=0;exitX=0.5;exitY=1;exitDx=0;exitDy=0;entryX=0.5;entryY=0;entryDx=0;entryDy=0;" parent="1" source="DZGPDvpxpe8UDhPTBdSN-27" target="DZGPDvpxpe8UDhPTBdSN-31" edge="1">
          <mxGeometry width="50" height="50" relative="1" as="geometry">
            <mxPoint x="590" y="478" as="sourcePoint" />
            <mxPoint x="640" y="428" as="targetPoint" />
          </mxGeometry>
        </mxCell>
        <mxCell id="DZGPDvpxpe8UDhPTBdSN-38" value="&lt;font style=&quot;font-size: 19px;&quot;&gt;qna&lt;br&gt;&lt;/font&gt;&lt;div style=&quot;font-size: 19px;&quot;&gt;&lt;font style=&quot;font-size: 19px;&quot;&gt;(묻고 답하기)&lt;/font&gt;&lt;/div&gt;" style="rounded=0;whiteSpace=wrap;html=1;" parent="1" vertex="1">
          <mxGeometry x="540" y="790" width="120" height="60" as="geometry" />
        </mxCell>
        <mxCell id="DZGPDvpxpe8UDhPTBdSN-39" value="&lt;b&gt;&lt;font color=&quot;#cc0000&quot;&gt;&lt;u&gt;&lt;span style=&quot;font-size: 16px;&quot;&gt;no&lt;/span&gt;&lt;br&gt;&lt;/u&gt;&lt;/font&gt;&lt;/b&gt;&lt;div style=&quot;font-size: 16px;&quot;&gt;&lt;font color=&quot;#cc0000&quot; style=&quot;font-size: 16px;&quot;&gt;&lt;b&gt;&lt;u&gt;(글번호)&lt;/u&gt;&lt;/b&gt;&lt;/font&gt;&lt;/div&gt;" style="ellipse;whiteSpace=wrap;html=1;" parent="1" vertex="1">
          <mxGeometry x="50" y="905" width="120" height="80" as="geometry" />
        </mxCell>
        <mxCell id="DZGPDvpxpe8UDhPTBdSN-40" value="&lt;span style=&quot;font-size: 16px;&quot;&gt;plevel&lt;/span&gt;&lt;br&gt;&lt;div style=&quot;font-size: 16px;&quot;&gt;&lt;font style=&quot;font-size: 16px;&quot;&gt;(글종류)&lt;/font&gt;&lt;/div&gt;" style="ellipse;whiteSpace=wrap;html=1;" parent="1" vertex="1">
          <mxGeometry x="190" y="905" width="120" height="80" as="geometry" />
        </mxCell>
        <mxCell id="DZGPDvpxpe8UDhPTBdSN-41" value="&lt;span style=&quot;font-size: 16px;&quot;&gt;parno&lt;/span&gt;&lt;br&gt;&lt;div style=&quot;font-size: 16px;&quot;&gt;&lt;font style=&quot;font-size: 16px;&quot;&gt;(부모글번호)&lt;/font&gt;&lt;/div&gt;" style="ellipse;whiteSpace=wrap;html=1;" parent="1" vertex="1">
          <mxGeometry x="330" y="905" width="120" height="80" as="geometry" />
        </mxCell>
        <mxCell id="DZGPDvpxpe8UDhPTBdSN-42" value="&lt;span style=&quot;font-size: 16px;&quot;&gt;title&lt;/span&gt;&lt;br&gt;&lt;div style=&quot;font-size: 16px;&quot;&gt;(글제목)&lt;/div&gt;" style="ellipse;whiteSpace=wrap;html=1;" parent="1" vertex="1">
          <mxGeometry x="470" y="905" width="120" height="80" as="geometry" />
        </mxCell>
        <mxCell id="DZGPDvpxpe8UDhPTBdSN-44" value="" style="endArrow=classic;html=1;rounded=0;exitX=0.5;exitY=1;exitDx=0;exitDy=0;entryX=0.5;entryY=0;entryDx=0;entryDy=0;" parent="1" source="DZGPDvpxpe8UDhPTBdSN-38" target="DZGPDvpxpe8UDhPTBdSN-39" edge="1">
          <mxGeometry width="50" height="50" relative="1" as="geometry">
            <mxPoint x="590" y="735" as="sourcePoint" />
            <mxPoint x="640" y="685" as="targetPoint" />
          </mxGeometry>
        </mxCell>
        <mxCell id="DZGPDvpxpe8UDhPTBdSN-45" value="" style="endArrow=classic;html=1;rounded=0;exitX=0.5;exitY=1;exitDx=0;exitDy=0;entryX=0.5;entryY=0;entryDx=0;entryDy=0;" parent="1" source="DZGPDvpxpe8UDhPTBdSN-38" target="DZGPDvpxpe8UDhPTBdSN-40" edge="1">
          <mxGeometry width="50" height="50" relative="1" as="geometry">
            <mxPoint x="590" y="735" as="sourcePoint" />
            <mxPoint x="640" y="685" as="targetPoint" />
          </mxGeometry>
        </mxCell>
        <mxCell id="DZGPDvpxpe8UDhPTBdSN-46" value="" style="endArrow=classic;html=1;rounded=0;exitX=0.5;exitY=1;exitDx=0;exitDy=0;entryX=0.5;entryY=0;entryDx=0;entryDy=0;" parent="1" source="DZGPDvpxpe8UDhPTBdSN-38" target="DZGPDvpxpe8UDhPTBdSN-41" edge="1">
          <mxGeometry width="50" height="50" relative="1" as="geometry">
            <mxPoint x="590" y="735" as="sourcePoint" />
            <mxPoint x="640" y="685" as="targetPoint" />
          </mxGeometry>
        </mxCell>
        <mxCell id="DZGPDvpxpe8UDhPTBdSN-47" value="" style="endArrow=classic;html=1;rounded=0;exitX=0.5;exitY=1;exitDx=0;exitDy=0;entryX=0.5;entryY=0;entryDx=0;entryDy=0;" parent="1" source="DZGPDvpxpe8UDhPTBdSN-38" edge="1">
          <mxGeometry width="50" height="50" relative="1" as="geometry">
            <mxPoint x="590" y="735" as="sourcePoint" />
            <mxPoint x="670" y="905" as="targetPoint" />
          </mxGeometry>
        </mxCell>
        <mxCell id="DZGPDvpxpe8UDhPTBdSN-48" value="" style="endArrow=classic;html=1;rounded=0;exitX=0.5;exitY=1;exitDx=0;exitDy=0;entryX=0.5;entryY=0;entryDx=0;entryDy=0;" parent="1" source="DZGPDvpxpe8UDhPTBdSN-38" target="DZGPDvpxpe8UDhPTBdSN-42" edge="1">
          <mxGeometry width="50" height="50" relative="1" as="geometry">
            <mxPoint x="590" y="735" as="sourcePoint" />
            <mxPoint x="640" y="685" as="targetPoint" />
          </mxGeometry>
        </mxCell>
        <mxCell id="DZGPDvpxpe8UDhPTBdSN-49" value="&lt;span style=&quot;font-size: 16px;&quot;&gt;content&lt;/span&gt;&lt;br&gt;&lt;div style=&quot;font-size: 16px;&quot;&gt;&lt;font style=&quot;font-size: 16px;&quot;&gt;(글내용)&lt;/font&gt;&lt;/div&gt;" style="ellipse;whiteSpace=wrap;html=1;" parent="1" vertex="1">
          <mxGeometry x="610" y="905" width="120" height="80" as="geometry" />
        </mxCell>
        <mxCell id="DZGPDvpxpe8UDhPTBdSN-50" value="&lt;span style=&quot;font-size: 16px;&quot;&gt;resdate&lt;/span&gt;&lt;br&gt;&lt;div style=&quot;font-size: 16px;&quot;&gt;&lt;font style=&quot;font-size: 16px;&quot;&gt;(작성일시)&lt;/font&gt;&lt;/div&gt;" style="ellipse;whiteSpace=wrap;html=1;" parent="1" vertex="1">
          <mxGeometry x="750" y="905" width="120" height="80" as="geometry" />
        </mxCell>
        <mxCell id="DZGPDvpxpe8UDhPTBdSN-51" value="&lt;span style=&quot;font-size: 16px;&quot;&gt;visited&lt;/span&gt;&lt;br&gt;&lt;div style=&quot;font-size: 16px;&quot;&gt;&lt;font style=&quot;font-size: 16px;&quot;&gt;(읽은횟수)&lt;/font&gt;&lt;/div&gt;" style="ellipse;whiteSpace=wrap;html=1;" parent="1" vertex="1">
          <mxGeometry x="890" y="905" width="120" height="80" as="geometry" />
        </mxCell>
        <mxCell id="DZGPDvpxpe8UDhPTBdSN-52" value="&lt;b&gt;&lt;font color=&quot;#0000ff&quot;&gt;&lt;u&gt;&lt;span style=&quot;font-size: 16px;&quot;&gt;aid&lt;/span&gt;&lt;br&gt;&lt;/u&gt;&lt;/font&gt;&lt;/b&gt;&lt;div style=&quot;font-size: 16px;&quot;&gt;&lt;font color=&quot;#0000ff&quot; style=&quot;font-size: 16px;&quot;&gt;&lt;b&gt;&lt;u&gt;(작성자)&lt;/u&gt;&lt;/b&gt;&lt;/font&gt;&lt;/div&gt;" style="ellipse;whiteSpace=wrap;html=1;" parent="1" vertex="1">
          <mxGeometry x="1030" y="905" width="120" height="80" as="geometry" />
        </mxCell>
        <mxCell id="DZGPDvpxpe8UDhPTBdSN-53" value="" style="endArrow=classic;html=1;rounded=0;entryX=0.5;entryY=0;entryDx=0;entryDy=0;exitX=0.5;exitY=1;exitDx=0;exitDy=0;" parent="1" source="DZGPDvpxpe8UDhPTBdSN-38" target="DZGPDvpxpe8UDhPTBdSN-50" edge="1">
          <mxGeometry width="50" height="50" relative="1" as="geometry">
            <mxPoint x="590" y="900" as="sourcePoint" />
            <mxPoint x="640" y="850" as="targetPoint" />
          </mxGeometry>
        </mxCell>
        <mxCell id="DZGPDvpxpe8UDhPTBdSN-54" value="" style="endArrow=classic;html=1;rounded=0;entryX=0.5;entryY=0;entryDx=0;entryDy=0;exitX=0.5;exitY=1;exitDx=0;exitDy=0;" parent="1" source="DZGPDvpxpe8UDhPTBdSN-38" target="DZGPDvpxpe8UDhPTBdSN-51" edge="1">
          <mxGeometry width="50" height="50" relative="1" as="geometry">
            <mxPoint x="590" y="900" as="sourcePoint" />
            <mxPoint x="640" y="850" as="targetPoint" />
          </mxGeometry>
        </mxCell>
        <mxCell id="DZGPDvpxpe8UDhPTBdSN-55" value="" style="endArrow=classic;html=1;rounded=0;entryX=0.5;entryY=0;entryDx=0;entryDy=0;exitX=0.5;exitY=1;exitDx=0;exitDy=0;" parent="1" source="DZGPDvpxpe8UDhPTBdSN-38" target="DZGPDvpxpe8UDhPTBdSN-52" edge="1">
          <mxGeometry width="50" height="50" relative="1" as="geometry">
            <mxPoint x="860" y="780" as="sourcePoint" />
            <mxPoint x="640" y="850" as="targetPoint" />
          </mxGeometry>
        </mxCell>
        <mxCell id="DZGPDvpxpe8UDhPTBdSN-56" value="&lt;span style=&quot;font-size: 19px;&quot;&gt;data&lt;/span&gt;&lt;br&gt;&lt;div style=&quot;font-size: 19px;&quot;&gt;&lt;font style=&quot;font-size: 19px;&quot;&gt;(자료실)&lt;/font&gt;&lt;/div&gt;" style="rounded=0;whiteSpace=wrap;html=1;" parent="1" vertex="1">
          <mxGeometry x="403" y="1054" width="120" height="60" as="geometry" />
        </mxCell>
        <mxCell id="DZGPDvpxpe8UDhPTBdSN-57" value="&lt;b&gt;&lt;font color=&quot;#cc0000&quot;&gt;&lt;u&gt;&lt;span style=&quot;font-size: 16px;&quot;&gt;no&lt;/span&gt;&lt;br&gt;&lt;/u&gt;&lt;/font&gt;&lt;/b&gt;&lt;div style=&quot;font-size: 16px;&quot;&gt;&lt;font color=&quot;#cc0000&quot; style=&quot;font-size: 16px;&quot;&gt;&lt;b&gt;&lt;u&gt;(글번호)&lt;/u&gt;&lt;/b&gt;&lt;/font&gt;&lt;/div&gt;" style="ellipse;whiteSpace=wrap;html=1;" parent="1" vertex="1">
          <mxGeometry x="50" y="1169" width="120" height="80" as="geometry" />
        </mxCell>
        <mxCell id="DZGPDvpxpe8UDhPTBdSN-58" value="&lt;span style=&quot;font-size: 16px;&quot;&gt;title&lt;/span&gt;&lt;br&gt;&lt;div style=&quot;font-size: 16px;&quot;&gt;&lt;font style=&quot;font-size: 16px;&quot;&gt;(글제목)&lt;/font&gt;&lt;/div&gt;" style="ellipse;whiteSpace=wrap;html=1;" parent="1" vertex="1">
          <mxGeometry x="190" y="1169" width="120" height="80" as="geometry" />
        </mxCell>
        <mxCell id="DZGPDvpxpe8UDhPTBdSN-59" value="&lt;span style=&quot;font-size: 16px;&quot;&gt;content&lt;/span&gt;&lt;br&gt;&lt;div style=&quot;font-size: 16px;&quot;&gt;&lt;font style=&quot;font-size: 16px;&quot;&gt;(글내용)&lt;/font&gt;&lt;/div&gt;" style="ellipse;whiteSpace=wrap;html=1;" parent="1" vertex="1">
          <mxGeometry x="470" y="1169" width="120" height="80" as="geometry" />
        </mxCell>
        <mxCell id="DZGPDvpxpe8UDhPTBdSN-60" value="&lt;span style=&quot;font-size: 16px;&quot;&gt;resdate&lt;/span&gt;&lt;br&gt;&lt;div style=&quot;font-size: 16px;&quot;&gt;&lt;font style=&quot;font-size: 16px;&quot;&gt;(작성일시)&lt;/font&gt;&lt;/div&gt;" style="ellipse;whiteSpace=wrap;html=1;" parent="1" vertex="1">
          <mxGeometry x="610" y="1169" width="120" height="80" as="geometry" />
        </mxCell>
        <mxCell id="DZGPDvpxpe8UDhPTBdSN-61" value="&lt;span style=&quot;font-size: 16px;&quot;&gt;visited&lt;/span&gt;&lt;br&gt;&lt;div style=&quot;font-size: 16px;&quot;&gt;&lt;font style=&quot;font-size: 16px;&quot;&gt;(읽은횟수)&lt;/font&gt;&lt;/div&gt;" style="ellipse;whiteSpace=wrap;html=1;" parent="1" vertex="1">
          <mxGeometry x="750" y="1169" width="120" height="80" as="geometry" />
        </mxCell>
        <mxCell id="DZGPDvpxpe8UDhPTBdSN-62" value="" style="endArrow=classic;html=1;rounded=0;exitX=0.5;exitY=1;exitDx=0;exitDy=0;entryX=0.5;entryY=0;entryDx=0;entryDy=0;" parent="1" source="DZGPDvpxpe8UDhPTBdSN-56" target="DZGPDvpxpe8UDhPTBdSN-57" edge="1">
          <mxGeometry width="50" height="50" relative="1" as="geometry">
            <mxPoint x="590" y="999" as="sourcePoint" />
            <mxPoint x="640" y="949" as="targetPoint" />
          </mxGeometry>
        </mxCell>
        <mxCell id="DZGPDvpxpe8UDhPTBdSN-63" value="" style="endArrow=classic;html=1;rounded=0;exitX=0.5;exitY=1;exitDx=0;exitDy=0;entryX=0.5;entryY=0;entryDx=0;entryDy=0;" parent="1" source="DZGPDvpxpe8UDhPTBdSN-56" target="DZGPDvpxpe8UDhPTBdSN-58" edge="1">
          <mxGeometry width="50" height="50" relative="1" as="geometry">
            <mxPoint x="590" y="999" as="sourcePoint" />
            <mxPoint x="640" y="949" as="targetPoint" />
          </mxGeometry>
        </mxCell>
        <mxCell id="DZGPDvpxpe8UDhPTBdSN-64" value="" style="endArrow=classic;html=1;rounded=0;exitX=0.5;exitY=1;exitDx=0;exitDy=0;entryX=0.5;entryY=0;entryDx=0;entryDy=0;" parent="1" source="DZGPDvpxpe8UDhPTBdSN-56" target="DZGPDvpxpe8UDhPTBdSN-59" edge="1">
          <mxGeometry width="50" height="50" relative="1" as="geometry">
            <mxPoint x="590" y="999" as="sourcePoint" />
            <mxPoint x="640" y="949" as="targetPoint" />
          </mxGeometry>
        </mxCell>
        <mxCell id="DZGPDvpxpe8UDhPTBdSN-65" value="" style="endArrow=classic;html=1;rounded=0;exitX=0.5;exitY=1;exitDx=0;exitDy=0;entryX=0.5;entryY=0;entryDx=0;entryDy=0;" parent="1" source="DZGPDvpxpe8UDhPTBdSN-56" target="DZGPDvpxpe8UDhPTBdSN-61" edge="1">
          <mxGeometry width="50" height="50" relative="1" as="geometry">
            <mxPoint x="590" y="999" as="sourcePoint" />
            <mxPoint x="640" y="949" as="targetPoint" />
          </mxGeometry>
        </mxCell>
        <mxCell id="DZGPDvpxpe8UDhPTBdSN-66" value="" style="endArrow=classic;html=1;rounded=0;exitX=0.5;exitY=1;exitDx=0;exitDy=0;entryX=0.5;entryY=0;entryDx=0;entryDy=0;" parent="1" source="DZGPDvpxpe8UDhPTBdSN-56" target="DZGPDvpxpe8UDhPTBdSN-60" edge="1">
          <mxGeometry width="50" height="50" relative="1" as="geometry">
            <mxPoint x="590" y="999" as="sourcePoint" />
            <mxPoint x="640" y="949" as="targetPoint" />
          </mxGeometry>
        </mxCell>
        <mxCell id="DZGPDvpxpe8UDhPTBdSN-67" value="&lt;span style=&quot;font-size: 16px;&quot;&gt;datafile&lt;/span&gt;&lt;br&gt;&lt;div style=&quot;font-size: 16px;&quot;&gt;&lt;font style=&quot;font-size: 16px;&quot;&gt;(자료파일)&lt;/font&gt;&lt;/div&gt;" style="ellipse;whiteSpace=wrap;html=1;" parent="1" vertex="1">
          <mxGeometry x="330" y="1170" width="120" height="80" as="geometry" />
        </mxCell>
        <mxCell id="DZGPDvpxpe8UDhPTBdSN-68" value="" style="endArrow=classic;html=1;rounded=0;entryX=0.5;entryY=0;entryDx=0;entryDy=0;exitX=0.5;exitY=1;exitDx=0;exitDy=0;" parent="1" source="DZGPDvpxpe8UDhPTBdSN-56" target="DZGPDvpxpe8UDhPTBdSN-67" edge="1">
          <mxGeometry width="50" height="50" relative="1" as="geometry">
            <mxPoint x="590" y="900" as="sourcePoint" />
            <mxPoint x="640" y="850" as="targetPoint" />
          </mxGeometry>
        </mxCell>
        <mxCell id="f9XGbrzPjOrain56PAgx-1" value="&lt;span style=&quot;font-size: 19px;&quot;&gt;member&lt;/span&gt;&lt;br&gt;&lt;div style=&quot;font-size: 19px;&quot;&gt;&lt;font style=&quot;font-size: 19px;&quot;&gt;(회원)&lt;/font&gt;&lt;/div&gt;" style="rounded=0;whiteSpace=wrap;html=1;" vertex="1" parent="1">
          <mxGeometry x="470" y="1320" width="120" height="60" as="geometry" />
        </mxCell>
        <mxCell id="f9XGbrzPjOrain56PAgx-2" value="&lt;b&gt;&lt;font color=&quot;#cc0000&quot;&gt;&lt;u&gt;&lt;span style=&quot;font-size: 16px;&quot;&gt;id&lt;/span&gt;&lt;br&gt;&lt;/u&gt;&lt;/font&gt;&lt;/b&gt;&lt;div style=&quot;font-size: 16px;&quot;&gt;&lt;font color=&quot;#cc0000&quot; style=&quot;font-size: 16px;&quot;&gt;&lt;b&gt;&lt;u&gt;(아이디)&lt;/u&gt;&lt;/b&gt;&lt;/font&gt;&lt;/div&gt;" style="ellipse;whiteSpace=wrap;html=1;" vertex="1" parent="1">
          <mxGeometry x="190" y="1435" width="120" height="80" as="geometry" />
        </mxCell>
        <mxCell id="f9XGbrzPjOrain56PAgx-3" value="&lt;span style=&quot;font-size: 16px;&quot;&gt;pw&lt;/span&gt;&lt;br&gt;&lt;div style=&quot;font-size: 16px;&quot;&gt;&lt;font style=&quot;font-size: 16px;&quot;&gt;(비밀번호)&lt;/font&gt;&lt;/div&gt;" style="ellipse;whiteSpace=wrap;html=1;" vertex="1" parent="1">
          <mxGeometry x="330" y="1435" width="120" height="80" as="geometry" />
        </mxCell>
        <mxCell id="f9XGbrzPjOrain56PAgx-4" value="&lt;span style=&quot;font-size: 16px;&quot;&gt;email&lt;/span&gt;&lt;br&gt;&lt;div style=&quot;font-size: 16px;&quot;&gt;&lt;font style=&quot;font-size: 16px;&quot;&gt;(이메일)&lt;/font&gt;&lt;/div&gt;" style="ellipse;whiteSpace=wrap;html=1;" vertex="1" parent="1">
          <mxGeometry x="610" y="1435" width="120" height="80" as="geometry" />
        </mxCell>
        <mxCell id="f9XGbrzPjOrain56PAgx-7" value="" style="endArrow=classic;html=1;rounded=0;exitX=0.5;exitY=1;exitDx=0;exitDy=0;entryX=0.5;entryY=0;entryDx=0;entryDy=0;" edge="1" parent="1" source="f9XGbrzPjOrain56PAgx-1" target="f9XGbrzPjOrain56PAgx-2">
          <mxGeometry width="50" height="50" relative="1" as="geometry">
            <mxPoint x="603" y="1380" as="sourcePoint" />
            <mxPoint x="780" y="1215" as="targetPoint" />
          </mxGeometry>
        </mxCell>
        <mxCell id="f9XGbrzPjOrain56PAgx-8" value="" style="endArrow=classic;html=1;rounded=0;entryX=0.5;entryY=0;entryDx=0;entryDy=0;exitX=0.5;exitY=1;exitDx=0;exitDy=0;" edge="1" parent="1" source="f9XGbrzPjOrain56PAgx-1" target="f9XGbrzPjOrain56PAgx-3">
          <mxGeometry width="50" height="50" relative="1" as="geometry">
            <mxPoint x="470" y="1380" as="sourcePoint" />
            <mxPoint x="780" y="1215" as="targetPoint" />
          </mxGeometry>
        </mxCell>
        <mxCell id="f9XGbrzPjOrain56PAgx-9" value="" style="endArrow=classic;html=1;rounded=0;entryX=0.5;entryY=0;entryDx=0;entryDy=0;exitX=0.5;exitY=1;exitDx=0;exitDy=0;" edge="1" parent="1" source="f9XGbrzPjOrain56PAgx-1" target="f9XGbrzPjOrain56PAgx-4">
          <mxGeometry width="50" height="50" relative="1" as="geometry">
            <mxPoint x="460" y="1380" as="sourcePoint" />
            <mxPoint x="780" y="1215" as="targetPoint" />
          </mxGeometry>
        </mxCell>
        <mxCell id="f9XGbrzPjOrain56PAgx-12" value="&lt;span style=&quot;font-size: 16px;&quot;&gt;birth&lt;/span&gt;&lt;br&gt;&lt;div style=&quot;font-size: 16px;&quot;&gt;&lt;font style=&quot;font-size: 16px;&quot;&gt;(생년월일)&lt;/font&gt;&lt;/div&gt;" style="ellipse;whiteSpace=wrap;html=1;" vertex="1" parent="1">
          <mxGeometry x="470" y="1435" width="120" height="80" as="geometry" />
        </mxCell>
        <mxCell id="f9XGbrzPjOrain56PAgx-13" value="" style="endArrow=classic;html=1;rounded=0;entryX=0.5;entryY=0;entryDx=0;entryDy=0;exitX=0.5;exitY=1;exitDx=0;exitDy=0;" edge="1" parent="1" source="f9XGbrzPjOrain56PAgx-1" target="f9XGbrzPjOrain56PAgx-12">
          <mxGeometry width="50" height="50" relative="1" as="geometry">
            <mxPoint x="603" y="1380" as="sourcePoint" />
            <mxPoint x="780" y="1116" as="targetPoint" />
          </mxGeometry>
        </mxCell>
        <mxCell id="f9XGbrzPjOrain56PAgx-15" value="&lt;font color=&quot;#0000ff&quot; style=&quot;font-size: 20px;&quot;&gt;&lt;b&gt;글등록&lt;/b&gt;&lt;/font&gt;" style="rhombus;whiteSpace=wrap;html=1;" vertex="1" parent="1">
          <mxGeometry x="1170" y="1114" width="200" height="80" as="geometry" />
        </mxCell>
        <mxCell id="f9XGbrzPjOrain56PAgx-16" value="" style="endArrow=classic;html=1;rounded=0;exitX=1;exitY=0.5;exitDx=0;exitDy=0;entryX=0.5;entryY=0;entryDx=0;entryDy=0;" edge="1" parent="1" source="DZGPDvpxpe8UDhPTBdSN-38" target="f9XGbrzPjOrain56PAgx-15">
          <mxGeometry width="50" height="50" relative="1" as="geometry">
            <mxPoint x="750" y="1230" as="sourcePoint" />
            <mxPoint x="800" y="1180" as="targetPoint" />
            <Array as="points">
              <mxPoint x="1270" y="820" />
            </Array>
          </mxGeometry>
        </mxCell>
        <mxCell id="f9XGbrzPjOrain56PAgx-17" value="" style="endArrow=classic;html=1;rounded=0;exitX=1;exitY=0.5;exitDx=0;exitDy=0;entryX=0.5;entryY=1;entryDx=0;entryDy=0;" edge="1" parent="1" source="f9XGbrzPjOrain56PAgx-1" target="f9XGbrzPjOrain56PAgx-15">
          <mxGeometry width="50" height="50" relative="1" as="geometry">
            <mxPoint x="750" y="1230" as="sourcePoint" />
            <mxPoint x="800" y="1180" as="targetPoint" />
            <Array as="points">
              <mxPoint x="1270" y="1340" />
            </Array>
          </mxGeometry>
        </mxCell>
        <mxCell id="f9XGbrzPjOrain56PAgx-18" value="&lt;b&gt;&lt;font style=&quot;font-size: 21px;&quot;&gt;1&lt;/font&gt;&lt;/b&gt;" style="text;html=1;align=center;verticalAlign=middle;whiteSpace=wrap;rounded=0;" vertex="1" parent="1">
          <mxGeometry x="1290" y="1210" width="60" height="30" as="geometry" />
        </mxCell>
        <mxCell id="f9XGbrzPjOrain56PAgx-19" value="&lt;b style=&quot;&quot;&gt;&lt;font style=&quot;font-size: 33px;&quot;&gt;∞&lt;/font&gt;&lt;/b&gt;" style="text;html=1;align=center;verticalAlign=middle;whiteSpace=wrap;rounded=0;" vertex="1" parent="1">
          <mxGeometry x="1290" y="1069" width="60" height="30" as="geometry" />
        </mxCell>
        <mxCell id="f9XGbrzPjOrain56PAgx-20" value="&lt;font style=&quot;&quot; color=&quot;#cc0000&quot;&gt;&lt;b&gt;&lt;span style=&quot;font-size: 16px;&quot;&gt;tno&lt;/span&gt;&lt;br&gt;&lt;/b&gt;&lt;/font&gt;&lt;div style=&quot;font-size: 16px;&quot;&gt;&lt;font color=&quot;#cc0000&quot; style=&quot;font-size: 16px;&quot;&gt;&lt;b&gt;(노선번호)&lt;/b&gt;&lt;/font&gt;&lt;/div&gt;" style="ellipse;whiteSpace=wrap;html=1;" vertex="1" parent="1">
          <mxGeometry x="53" y="160" width="120" height="80" as="geometry" />
        </mxCell>
        <mxCell id="f9XGbrzPjOrain56PAgx-21" value="" style="endArrow=classic;html=1;rounded=0;exitX=0.5;exitY=1;exitDx=0;exitDy=0;entryX=0.5;entryY=0;entryDx=0;entryDy=0;" edge="1" parent="1" source="DZGPDvpxpe8UDhPTBdSN-1" target="f9XGbrzPjOrain56PAgx-20">
          <mxGeometry width="50" height="50" relative="1" as="geometry">
            <mxPoint x="403" y="128" as="sourcePoint" />
            <mxPoint x="263" y="170" as="targetPoint" />
          </mxGeometry>
        </mxCell>
        <mxCell id="f9XGbrzPjOrain56PAgx-22" value="&lt;span style=&quot;font-size: 21px;&quot;&gt;&lt;b&gt;&lt;font color=&quot;#cc0000&quot;&gt;id&lt;/font&gt;&lt;/b&gt;&lt;/span&gt;" style="text;html=1;align=center;verticalAlign=middle;whiteSpace=wrap;rounded=0;" vertex="1" parent="1">
          <mxGeometry x="1200" y="1210" width="60" height="30" as="geometry" />
        </mxCell>
        <mxCell id="f9XGbrzPjOrain56PAgx-23" value="&lt;b&gt;&lt;font color=&quot;#0000ff&quot; style=&quot;font-size: 21px;&quot;&gt;aid&lt;/font&gt;&lt;/b&gt;" style="text;html=1;align=center;verticalAlign=middle;whiteSpace=wrap;rounded=0;" vertex="1" parent="1">
          <mxGeometry x="1200" y="1069" width="60" height="30" as="geometry" />
        </mxCell>
        <mxCell id="f9XGbrzPjOrain56PAgx-24" value="&lt;span style=&quot;font-size: 16px;&quot;&gt;tel&lt;/span&gt;&lt;br&gt;&lt;div style=&quot;font-size: 16px;&quot;&gt;&lt;font style=&quot;font-size: 16px;&quot;&gt;(전화번호)&lt;/font&gt;&lt;/div&gt;" style="ellipse;whiteSpace=wrap;html=1;" vertex="1" parent="1">
          <mxGeometry x="750" y="1430" width="120" height="80" as="geometry" />
        </mxCell>
        <mxCell id="f9XGbrzPjOrain56PAgx-26" value="" style="endArrow=classic;html=1;rounded=0;entryX=0.5;entryY=0;entryDx=0;entryDy=0;exitX=0.5;exitY=1;exitDx=0;exitDy=0;" edge="1" parent="1" source="f9XGbrzPjOrain56PAgx-1" target="f9XGbrzPjOrain56PAgx-24">
          <mxGeometry width="50" height="50" relative="1" as="geometry">
            <mxPoint x="540" y="1390" as="sourcePoint" />
            <mxPoint x="680" y="1445" as="targetPoint" />
          </mxGeometry>
        </mxCell>
      </root>
    </mxGraphModel>
  </diagram>
</mxfile>
